<mxfile host="app.diagrams.net" modified="2021-07-26T12:31:06.024Z" agent="5.0 (Windows NT 10.0; Win64; x64) AppleWebKit/537.36 (KHTML, like Gecko) Chrome/91.0.4472.164 Safari/537.36" etag="P1us5oJx9_8U9YuVG9yL" version="14.9.1" type="github">
  <diagram id="qWnP7KDZG8L1uuW-6t6_" name="Page-1">
    <mxGraphModel dx="1022" dy="436" grid="1" gridSize="10" guides="1" tooltips="1" connect="1" arrows="1" fold="1" page="1" pageScale="1" pageWidth="827" pageHeight="1169" math="0" shadow="0">
      <root>
        <mxCell id="0" />
        <mxCell id="1" parent="0" />
        <mxCell id="dT5ibNhaV-bpG6mqH5s6-2" value="L-1" style="ellipse;whiteSpace=wrap;html=1;" vertex="1" parent="1">
          <mxGeometry x="60" y="380" width="80" height="30" as="geometry" />
        </mxCell>
        <mxCell id="dT5ibNhaV-bpG6mqH5s6-3" value="L-2" style="ellipse;whiteSpace=wrap;html=1;" vertex="1" parent="1">
          <mxGeometry x="60" y="430" width="80" height="30" as="geometry" />
        </mxCell>
        <mxCell id="dT5ibNhaV-bpG6mqH5s6-4" value="L-3" style="ellipse;whiteSpace=wrap;html=1;" vertex="1" parent="1">
          <mxGeometry x="60" y="490" width="80" height="30" as="geometry" />
        </mxCell>
        <mxCell id="dT5ibNhaV-bpG6mqH5s6-5" value="L-4" style="ellipse;whiteSpace=wrap;html=1;" vertex="1" parent="1">
          <mxGeometry x="60" y="555" width="80" height="30" as="geometry" />
        </mxCell>
        <mxCell id="dT5ibNhaV-bpG6mqH5s6-6" value="L- Location" style="rounded=0;whiteSpace=wrap;html=1;" vertex="1" parent="1">
          <mxGeometry x="60" y="630" width="120" height="60" as="geometry" />
        </mxCell>
        <mxCell id="dT5ibNhaV-bpG6mqH5s6-7" value="GCS-Bucket" style="rounded=0;whiteSpace=wrap;html=1;" vertex="1" parent="1">
          <mxGeometry x="240" y="460" width="120" height="60" as="geometry" />
        </mxCell>
      </root>
    </mxGraphModel>
  </diagram>
</mxfile>
